<?xml version="1.0" encoding="UTF-8"?>
<svg width="24px" height="24px" viewBox="0 0 24 24" version="1.1" xmlns="http://www.w3.org/2000/svg" xmlns:xlink="http://www.w3.org/1999/xlink">
    <title>A52215F3-E1CA-4B2E-BE09-D9F79BF450F5</title>
    <g id="Page" stroke="none" stroke-width="1" fill="none" fill-rule="evenodd" stroke-linecap="round" stroke-linejoin="round">
        <g id="Login" transform="translate(-698.000000, -432.000000)" stroke="#000000" stroke-width="2">
            <g id="eye-off" transform="translate(699.000000, 433.000000)">
                <path d="M16.94,16.94 C15.23059,18.2430022 13.1491075,18.9648632 11,19 C4,19 0,11 0,11 C1.2438899,8.68189567 2.96913545,6.65660741 5.06,5.06 M8.9,3.24 C9.5883323,3.07887951 10.2930641,2.99833874 11,2.99997482 C18,2.99997482 22,11 22,11 C21.3929796,12.1356074 20.6690554,13.2047361 19.84,14.19 M13.12,13.12 C12.3721177,13.9226127 11.2457778,14.2529967 10.1828444,13.9815422 C9.1199109,13.7100876 8.28991239,12.8800891 8.01845783,11.8171556 C7.74700327,10.7542222 8.07738729,9.62788232 8.88,8.88" id="Shape"></path>
                <line x1="0" y1="0" x2="22" y2="22" id="Path"></line>
            </g>
        </g>
    </g>
</svg>