<?xml version="1.0" encoding="UTF-8"?>
<svg width="27px" height="27px" viewBox="0 0 27 27" version="1.1" xmlns="http://www.w3.org/2000/svg" xmlns:xlink="http://www.w3.org/1999/xlink">
    <title>9A879530-39D3-487B-8ED7-4CA3DD5C52B0</title>
    <g id="Phase-1" stroke="none" stroke-width="1" fill="none" fill-rule="evenodd" stroke-linecap="round" stroke-linejoin="round">
        <g id="Contacts---Brand" transform="translate(-36.000000, -425.000000)" stroke="#000000" stroke-width="2.33333333">
            <g id="Side-Navigation" transform="translate(0.000000, -1.000000)">
                <g id="settings" transform="translate(38.000000, 428.000000)">
                    <circle id="Oval" cx="11.8461538" cy="11.8461538" r="3.23076923"></circle>
                    <path d="M19.8153846,15.0769231 C19.5220884,15.7414816 19.6628214,16.5176451 20.1707692,17.0369231 L20.2353846,17.1015385 C20.6398275,17.5055316 20.867079,18.0537339 20.867079,18.6253846 C20.867079,19.1970353 20.6398275,19.7452376 20.2353846,20.1492308 C19.8313914,20.5536736 19.2831891,20.7809251 18.7115385,20.7809251 C18.1398878,20.7809251 17.5916855,20.5536736 17.1876923,20.1492308 L17.1230769,20.0846154 C16.6037989,19.5766675 15.8276355,19.4359346 15.1630769,19.7292308 C14.5121086,20.0082274 14.0889785,20.6471538 14.0861538,21.3553846 L14.0861538,21.5384615 C14.0861538,22.7279979 13.1218441,23.6923077 11.9323077,23.6923077 C10.7427713,23.6923077 9.77846154,22.7279979 9.77846154,21.5384615 L9.77846154,21.4415385 C9.76139942,20.712107 9.3001696,20.0672394 8.61538462,19.8153846 C7.95082608,19.5220884 7.17466264,19.6628214 6.65538462,20.1707692 L6.59076923,20.2353846 C6.18677606,20.6398275 5.63857377,20.867079 5.06692308,20.867079 C4.49527239,20.867079 3.94707009,20.6398275 3.54307692,20.2353846 C3.13863406,19.8313914 2.91138259,19.2831891 2.91138259,18.7115385 C2.91138259,18.1398878 3.13863406,17.5916855 3.54307692,17.1876923 L3.60769231,17.1230769 C4.11564018,16.6037989 4.25637311,15.8276355 3.96307692,15.1630769 C3.68408031,14.5121086 3.04515392,14.0889785 2.33692308,14.0861538 L2.15384615,14.0861538 C0.96430977,14.0861538 0,13.1218441 0,11.9323077 C0,10.7427713 0.96430977,9.77846154 2.15384615,9.77846154 L2.25076923,9.77846154 C2.98020065,9.76139942 3.62506827,9.3001696 3.87692308,8.61538462 C4.17021926,7.95082608 4.02948633,7.17466264 3.52153846,6.65538462 L3.45692308,6.59076923 C3.05248022,6.18677606 2.82522874,5.63857377 2.82522874,5.06692308 C2.82522874,4.49527239 3.05248022,3.94707009 3.45692308,3.54307692 C3.86091625,3.13863406 4.40911854,2.91138259 4.98076923,2.91138259 C5.55241992,2.91138259 6.10062222,3.13863406 6.50461538,3.54307692 L6.56923077,3.60769231 C7.08850879,4.11564018 7.86467223,4.25637311 8.52923077,3.96307692 L8.61538462,3.96307692 C9.26635296,3.68408031 9.68948302,3.04515392 9.69230769,2.33692308 L9.69230769,2.15384615 C9.69230769,0.96430977 10.6566175,0 11.8461538,0 C13.0356902,0 14,0.96430977 14,2.15384615 L14,2.25076923 C14.0028247,2.95900007 14.4259547,3.59792646 15.0769231,3.87692308 C15.7414816,4.17021926 16.5176451,4.02948633 17.0369231,3.52153846 L17.1015385,3.45692308 C17.5055316,3.05248022 18.0537339,2.82522874 18.6253846,2.82522874 C19.1970353,2.82522874 19.7452376,3.05248022 20.1492308,3.45692308 C20.5536736,3.86091625 20.7809251,4.40911854 20.7809251,4.98076923 C20.7809251,5.55241992 20.5536736,6.10062222 20.1492308,6.50461538 L20.0846154,6.56923077 C19.5766675,7.08850879 19.4359346,7.86467223 19.7292308,8.52923077 L19.7292308,8.61538462 C20.0082274,9.26635296 20.6471538,9.68948302 21.3553846,9.69230769 L21.5384615,9.69230769 C22.7279979,9.69230769 23.6923077,10.6566175 23.6923077,11.8461538 C23.6923077,13.0356902 22.7279979,14 21.5384615,14 L21.4415385,14 C20.7333076,14.0028247 20.0943812,14.4259547 19.8153846,15.0769231 Z" id="Path"></path>
                </g>
            </g>
        </g>
    </g>
</svg>