<?xml version="1.0" encoding="UTF-8"?>
<svg width="77px" height="77px" viewBox="0 0 77 77" version="1.1" xmlns="http://www.w3.org/2000/svg" xmlns:xlink="http://www.w3.org/1999/xlink">
    <title>65905F3A-ABC1-4904-A71B-3EAEADA39EB7@2x</title>
    <g id="Page" stroke="none" stroke-width="1" fill="none" fill-rule="evenodd">
        <g id="Settings---Connected-Accounts---Connected---Influencer" transform="translate(-501.000000, -993.000000)">
            <g id="tiktok-block" transform="translate(501.000000, 993.000000)">
                <rect id="Rectangle-Copy-11" fill="#000000" x="0" y="0" width="77" height="77" rx="9"></rect>
                <g id="tiktok" transform="translate(24.000000, 21.000000)" fill="#FFFFFF" fill-rule="nonzero">
                    <path d="M27.8578833,8.49131979 C24.3981545,8.49131979 21.5834471,5.5903738 21.5834471,2.02464384 C21.5834471,1.47493364 21.1509181,1.02941176 20.617801,1.02941176 L15.4460622,1.02941176 C14.9126936,1.02941176 14.4804161,1.47493364 14.4804161,2.02464384 L14.4804161,23.8777632 C14.4804161,25.9739708 12.8257413,27.6793423 10.7915978,27.6793423 C8.75770574,27.6793423 7.10303102,25.9739708 7.10303102,23.8777632 C7.10303102,21.7812964 8.75770574,20.0759248 10.7915978,20.0759248 C11.3249664,20.0759248 11.7572439,19.6304029 11.7572439,19.0806927 L11.7572439,13.7504993 C11.7572439,13.2010483 11.3249664,12.7552672 10.7915978,12.7552672 C4.84105537,12.7552672 0,17.7449047 0,23.8777632 C0,30.0106217 4.84105537,35 10.7915978,35 C16.7421403,35 21.5834471,30.0106217 21.5834471,23.8777632 L21.5834471,14.2045739 C23.5054348,15.2607122 25.6439385,15.8119774 27.8578833,15.8119774 C28.3912519,15.8119774 28.8235294,15.3664556 28.8235294,14.8167453 L28.8235294,9.48655186 C28.8235294,8.93710082 28.3912519,8.49131979 27.8578833,8.49131979 Z M26.8922373,13.7803044 C24.8306835,13.603547 22.8729869,12.8612698 21.1815975,11.6073811 C20.8876287,11.3891557 20.4998614,11.3590914 20.177225,11.5296285 C19.8548401,11.6996473 19.6521549,12.0417583 19.6521549,12.4152296 L19.6521549,23.8777632 C19.6521549,28.9130154 15.6771634,33.0095358 10.7915978,33.0095358 C5.90603224,33.0095358 1.93129215,28.9130154 1.93129215,23.8777632 C1.93129215,19.1786609 5.39303276,15.2969966 9.82595171,14.7996398 L9.82595171,18.1709884 C7.18551329,18.644242 5.17173887,21.0229504 5.17173887,23.8777632 C5.17173887,27.0715769 7.69272893,29.6700657 10.7915978,29.6700657 C13.8907182,29.6700657 16.4117083,27.0715769 16.4117083,23.8777632 L16.4117083,3.01987592 L19.7084843,3.01987592 C20.1508206,6.88935894 23.1377852,9.96783986 26.8922373,10.4237287 L26.8922373,13.7803044 Z" id="Shape"></path>
                </g>
            </g>
        </g>
    </g>
</svg>