<?xml version="1.0" encoding="UTF-8"?>
<svg width="77px" height="77px" viewBox="0 0 77 77" version="1.1" xmlns="http://www.w3.org/2000/svg" xmlns:xlink="http://www.w3.org/1999/xlink">
    <title>1097F9E3-49E2-4765-BBA3-0BC4EB1CBD81</title>
    <g id="Page" stroke="none" stroke-width="1" fill="none" fill-rule="evenodd">
        <g id="Profile---Influencer---View-Own" transform="translate(-907.000000, -1541.000000)">
            <g id="Twitter-block" transform="translate(907.000000, 1541.000000)">
                <rect id="Rectangle-Copy-12" fill="#00ACEE" x="0" y="0" width="77" height="77" rx="9"></rect>
                <g id="twitter" transform="translate(21.000000, 24.000000)" stroke="#FFFFFF" stroke-linecap="round" stroke-linejoin="round" stroke-width="3">
                    <path d="M35,0.0163778269 C33.4765216,1.09436134 31.7897171,1.91884577 30.0045455,2.45808019 C28.0419356,0.194379196 24.8792249,-0.599450929 22.0851296,0.470332481 C19.2910343,1.54011589 17.4599095,4.24595031 17.5,7.24573187 L17.5,8.84161577 C11.8215122,8.98931865 6.4464039,6.2753874 3.18181818,1.61226172 C3.18181818,1.61226172 -3.18181818,15.9752168 11.1363636,22.3587524 C7.85993022,24.5897443 3.95684054,25.7083999 0,25.5505202 C14.3181818,33.5299396 31.8181818,25.5505202 31.8181818,7.19785536 C31.8167168,6.7533277 31.7741097,6.30989662 31.6909091,5.87327172 C33.3145959,4.26700354 34.4604072,2.23898573 35,0.0163778269 Z" id="Path"></path>
                </g>
            </g>
        </g>
    </g>
</svg>