<?xml version="1.0" encoding="UTF-8"?>
<svg width="24px" height="18px" viewBox="0 0 24 18" version="1.1" xmlns="http://www.w3.org/2000/svg" xmlns:xlink="http://www.w3.org/1999/xlink">
    <title>4909393E-884E-4258-9816-074B4032771C</title>
    <g id="Page" stroke="none" stroke-width="1" fill="none" fill-rule="evenodd" stroke-linecap="round" stroke-linejoin="round">
        <g id="Brand---Create-a-new-Campaign---Step-8-Choose-and-Influencer" transform="translate(-1121.000000, -326.000000)" fill-rule="nonzero" stroke="#000000" stroke-width="2">
            <g id="Wizard" transform="translate(845.000000, 130.000000)">
                <g id="youtube" transform="translate(277.000000, 197.000000)">
                    <path d="M21.540571,2.42000008 C21.2987822,1.45399189 20.5587691,0.691092491 19.6005705,0.420000553 C18.453903,0.140000184 15.5872362,0 11.0005701,0 C6.41390339,0 3.54723659,0.153333346 2.40056975,0.460000038 C1.4423712,0.731091499 0.702358794,1.49399137 0.460569453,2.46000051 C0.145784211,4.20555496 -0.00819222905,5.97630692 0.000572037919,7.74999523 C-0.0106527088,9.53704548 0.143337083,11.3213091 0.460569215,13.0800133 C0.726924491,14.0152645 1.46260769,14.7433586 2.40057118,15 C3.54723707,15.3066661 6.41390339,15.4599991 11.0005701,15.4599991 C15.5872375,15.4599991 18.4539043,15.3066661 19.6005705,15 C20.5587691,14.7289085 21.2987822,13.9660091 21.540571,13 C21.8529299,11.2675886 22.0068987,9.51033401 22.000572,7.75 C22.0117892,5.96295452 21.8578013,4.17869759 21.5405691,2.41999912 L21.540571,2.42000008 Z" id="Path-14"></path>
                    <path d="M8.751,11.0200009 L14.501,7.75000046 L8.751,4.48 L8.751,11.0200009 Z" id="Path-15"></path>
                </g>
            </g>
        </g>
    </g>
</svg>