<?xml version="1.0" encoding="UTF-8"?>
<svg width="77px" height="77px" viewBox="0 0 77 77" version="1.1" xmlns="http://www.w3.org/2000/svg" xmlns:xlink="http://www.w3.org/1999/xlink">
    <title>F8F40191-165A-489C-90B0-6A72216759C0</title>
    <g id="Page" stroke="none" stroke-width="1" fill="none" fill-rule="evenodd">
        <g id="Settings---Connected-Accounts---Connected---Influencer" transform="translate(-501.000000, -546.000000)">
            <g id="Youtube-block" transform="translate(501.000000, 546.000000)">
                <rect id="Rectangle-Copy-6" fill="#FF0000" x="0" y="0" width="77" height="77" rx="9"></rect>
                <g id="youtube" transform="translate(17.000000, 23.000000)" stroke="#FFFFFF" stroke-linecap="round" stroke-linejoin="round" stroke-width="3">
                    <path d="M42.3242105,4.75508772 C41.8491159,2.85696552 40.3950562,1.35793488 38.5122807,0.825263158 C35.1326316,0 21.6140351,0 21.6140351,0 C21.6140351,0 8.0954386,0 4.71578947,0.903859649 C2.83301397,1.43653137 1.37895425,2.93556201 0.903859649,4.83368421 C0.285333866,8.26354767 -0.0172206342,11.7429244 3.24154766e-15,15.2280702 C-0.0220477027,18.7394568 0.280525983,22.245365 0.903859649,25.7010526 C1.42721463,27.5387493 2.87276828,28.9694003 4.71578947,29.4736842 C8.0954386,30.3775439 21.6140351,30.3775439 21.6140351,30.3775439 C21.6140351,30.3775439 35.1326316,30.3775439 38.5122807,29.4736842 C40.3950562,28.9410125 41.8491159,27.4419818 42.3242105,25.5438596 C42.9379649,22.139823 43.2405004,18.6869726 43.2280702,15.2280702 C43.2501179,11.7166835 42.9475442,8.2107754 42.3242105,4.75508772 Z" id="Path"></path>
                    <polygon id="Path" points="17.1929825 21.6533333 28.4912281 15.2280702 17.1929825 8.80280702"></polygon>
                </g>
            </g>
        </g>
    </g>
</svg>